<svg width="42" height="42" viewBox="0 0 42 42" fill="none" xmlns="http://www.w3.org/2000/svg">
<g clip-path="url(#clip0_107_1001)">
<mask id="mask0_107_1001" style="mask-type:luminance" maskUnits="userSpaceOnUse" x="0" y="0" width="42" height="42">
<path d="M42 0H0V42H42V0Z" fill="white"/>
</mask>
<g mask="url(#mask0_107_1001)">
<path opacity="0.4" d="M29.6097 38.4997C24.7097 38.4997 20.7197 34.5273 20.7197 29.6098C20.7197 24.7098 24.6922 20.7197 29.6097 20.7197C34.5097 20.7197 38.4997 24.6923 38.4997 29.6098C38.4997 34.5273 34.5272 38.4997 29.6097 38.4997Z" fill="black"/>
<path opacity="0.4" d="M8.785 3.5H15.645C19.2675 3.5 21.0175 5.24998 20.93 8.78498V15.645C21.0175 19.2675 19.2675 21.0175 15.645 20.93H8.785C5.25 21 3.5 19.25 3.5 15.6275V8.76752C3.5 5.25002 5.25 3.5 8.785 3.5Z" fill="black"/>
<path d="M15.7678 14.4549C15.2253 14.4549 14.7178 14.2448 14.2453 13.8948C14.6828 13.1948 14.9978 12.4073 15.1553 11.5498H15.7503C16.4678 11.5498 17.0628 10.9548 17.0628 10.2373C17.0628 9.51985 16.4678 8.92485 15.7503 8.92485H14.0178C14.0003 8.92485 13.9828 8.92485 13.9828 8.92485H13.9478H13.4928C13.4228 8.25985 12.8803 7.73486 12.1978 7.73486C11.5153 7.73486 10.9728 8.25985 10.9028 8.92485H8.64532C7.92782 8.92485 7.33282 9.51985 7.33282 10.2373C7.33282 10.9548 7.92782 11.5498 8.64532 11.5498H12.4428C11.9178 13.2298 10.4128 14.4549 8.62781 14.4549C7.91031 14.4549 7.31531 15.0499 7.31531 15.7674C7.31531 16.4849 7.91031 17.0799 8.62781 17.0799C10.0453 17.0799 11.3578 16.6074 12.4428 15.8199C13.4053 16.6249 14.5603 17.0799 15.7503 17.0799C16.4678 17.0799 17.0628 16.4849 17.0628 15.7674C17.0628 15.0499 16.4853 14.4549 15.7678 14.4549Z" fill="black"/>
<path d="M15.75 39.8125C8.2775 39.8125 2.1875 33.7225 2.1875 26.25C2.1875 25.5325 2.7825 24.9375 3.5 24.9375C4.2175 24.9375 4.8125 25.5325 4.8125 26.25C4.8125 31.43 8.4175 35.77 13.265 36.9075L12.7925 36.12C12.425 35.49 12.6175 34.685 13.2475 34.3175C13.86 33.95 14.6825 34.1425 15.05 34.7725L16.8875 37.835C17.1325 38.2375 17.1325 38.745 16.905 39.1475C16.66 39.55 16.2225 39.8125 15.75 39.8125Z" fill="black"/>
<path d="M38.4998 17.0625C37.7823 17.0625 37.1873 16.4675 37.1873 15.75C37.1873 10.57 33.5823 6.23 28.7348 5.0925L29.2073 5.87998C29.5748 6.50998 29.3823 7.31502 28.7523 7.68252C28.1398 8.05002 27.3173 7.85752 26.9498 7.2275L25.1123 4.165C24.8673 3.7625 24.8673 3.255 25.0948 2.8525C25.3223 2.4325 25.7598 2.1875 26.2323 2.1875C33.7048 2.1875 39.7948 8.2775 39.7948 15.75C39.8123 16.4675 39.2173 17.0625 38.4998 17.0625Z" fill="black"/>
<path d="M34.5275 32.0768L30.7825 24.6043C30.555 24.1668 30.1 23.8693 29.61 23.8693C29.12 23.8693 28.665 24.1493 28.4375 24.5868L24.6925 32.0593C24.36 32.7068 24.6225 33.4943 25.2875 33.8268C25.48 33.9143 25.6725 33.9668 25.865 33.9668C26.3375 33.9668 26.81 33.7043 27.0375 33.2493L27.335 32.6543H31.8677L32.165 33.2493C32.4975 33.8968 33.285 34.1593 33.9325 33.8443C34.5975 33.5118 34.86 32.7243 34.5275 32.0768ZM28.665 30.0293L29.6275 28.1218L30.59 30.0293H28.665Z" fill="black"/>
</g>
</g>
<defs>
<clipPath id="clip0_107_1001">
<rect width="42" height="42" fill="white"/>
</clipPath>
</defs>
</svg>
