<svg width="24" height="24" viewBox="0 0 24 24" fill="none" xmlns="http://www.w3.org/2000/svg">
<g clip-path="url(#clip0_168_76)">
<mask id="mask0_168_76" style="mask-type:luminance" maskUnits="userSpaceOnUse" x="0" y="0" width="24" height="24">
<path d="M24 0H0V24H24V0Z" fill="white"/>
</mask>
<g mask="url(#mask0_168_76)">
<path d="M20.3603 2.58C20.6532 2.28714 21.1279 2.28712 21.4208 2.58C21.7137 2.87288 21.7137 3.34766 21.4208 3.64054L18.0907 6.97062C17.7979 7.26346 17.3231 7.26346 17.0302 6.97062C16.7373 6.67774 16.7373 6.20297 17.0302 5.91008L20.3603 2.58Z" fill="black"/>
<path d="M2.58002 2.58002C2.87291 2.28713 3.34768 2.28713 3.64057 2.58002L6.97065 5.9101C7.26346 6.203 7.26351 6.67778 6.97065 6.97065C6.67778 7.26352 6.203 7.26346 5.9101 6.97065L2.58002 3.64057C2.28713 3.34768 2.28713 2.87292 2.58002 2.58002Z" fill="black"/>
<path d="M17.0292 17.0302C17.3221 16.7373 17.7969 16.7373 18.0898 17.0302L21.4199 20.3603C21.7127 20.6532 21.7127 21.128 21.4199 21.4209C21.127 21.7137 20.6522 21.7137 20.3593 21.4209L17.0292 18.0908C16.7363 17.7979 16.7363 17.3231 17.0292 17.0302Z" fill="black"/>
<path d="M5.91008 17.0302C6.20298 16.7374 6.67775 16.7373 6.97063 17.0302C7.26347 17.3231 7.26347 17.7979 6.97063 18.0908L3.64055 21.4208C3.34767 21.7137 2.87289 21.7137 2.58 21.4208C2.28712 21.128 2.28715 20.6532 2.58 20.3603L5.91008 17.0302Z" fill="black"/>
<path d="M19.7401 12.4901L14.0901 13.7101C13.9001 13.7501 13.7501 13.9001 13.7101 14.0901L12.4901 19.7401C12.3801 20.2601 11.6301 20.2601 11.5101 19.7401L10.2901 14.0901C10.2501 13.9001 10.1001 13.7501 9.91012 13.7101L4.26012 12.4901C3.74012 12.3801 3.74012 11.6301 4.26012 11.5101L9.91012 10.2901C10.1001 10.2501 10.2501 10.1001 10.2901 9.91012L11.5101 4.26012C11.6201 3.74012 12.3701 3.74012 12.4901 4.26012L13.7101 9.91012C13.7501 10.1001 13.9001 10.2501 14.0901 10.2901L19.7401 11.5101C20.2601 11.6201 20.2601 12.3701 19.7401 12.4901Z" fill="black"/>
</g>
</g>
<defs>
<clipPath id="clip0_168_76">
<rect width="24" height="24" fill="white"/>
</clipPath>
</defs>
</svg>
